# xmcd
#
# Track frame offsets: 
#        150
#        8456
#        19167
#        29708
#        39841
#        49653
#        61586
#        75983
#        88649
#        99887
#        114095
#        125234
#        138578
#        150539
#        159842
#        172327
#        182199
#        194497
#        205808
#        218047
#        229788
#        240381
#        250635
#        262038
#        275023
#        286652
#        297834
#        310044
#
# Disc length: 4272 seconds
#
# Revision: 5
# Processed by: cddbd v1.5.2PL0 Copyright (c) Steve Scherf et al.
# Submitted via: ExactAudioCopyFreeDBPlugin 1.0
#
DISCID=7410ae1c
DTITLE=Various Artist - The Complete Goldwax Singles, 1962-1970
DYEAR=2009
DGENRE=Rhythm and Blues
TTITLE0=Gene "Bowlegs" Miller - Toddlin'
TTITLE1=Gene "Bowlegs" Miller - Bow Legged
TTITLE2=James Carr - I Can't Make It
TTITLE3=James Carr - Lover's Competition
TTITLE4=The Merits - Arabian Jerk
TTITLE5=The Merits - Please Please Little Girl
TTITLE6=The Ovations - It's Wonderful to Be in Love (ft Louis Williams
TTITLE6=)
TTITLE7=The Ovations - Dance Party (ft Louis Williams)
TTITLE8=Big Lucky Carter - Ohio Bound
TTITLE9=Big Lucky Carter - Hurricane Blues
TTITLE10=Dorothy Williams - The Well's Gone Dry
TTITLE11=Dorothy Williams - Country Style
TTITLE12=Al Vance - Every Woman I Know (Is Crazy Bout Automobiles)
TTITLE13=Al Vance - Have You Seen Jean
TTITLE14=Spencer Wiggins - What Do You Think About My Baby
TTITLE15=Spencer Wiggins - Lover's Crime
TTITLE16=The Ovations - I'm Living Good (ft Louis Williams)
TTITLE17=The Ovations - Recipe for Love (ft Louis Williams)
TTITLE18=Spencer Wiggins - Love Works That Way
TTITLE19=Spencer Wiggins - I'll Be True to You
TTITLE20=James Carr - She's Better Than You
TTITLE21=James Carr - Talk Talk
TTITLE22=The Lamars - My Motorbike Balked
TTITLE23=The Lamars - Patsy
TTITLE24=The Ovations - Don't Cry
TTITLE25=The Ovations - Need a Lot of Loving
TTITLE26=The Vel Tones - Darling
TTITLE27=The Vel Tones - I Do
EXTD=
EXTT0=
EXTT1=
EXTT2=
EXTT3=
EXTT4=
EXTT5=
EXTT6=
EXTT7=
EXTT8=
EXTT9=
EXTT10=
EXTT11=
EXTT12=
EXTT13=
EXTT14=
EXTT15=
EXTT16=
EXTT17=
EXTT18=
EXTT19=
EXTT20=
EXTT21=
EXTT22=
EXTT23=
EXTT24=
EXTT25=
EXTT26=
EXTT27=
PLAYORDER=
